<svg xmlns="http://www.w3.org/2000/svg"
  xmlns:xlink="http://www.w3.org/1999/xlink">
  <defs>
    <symbol viewBox="0 0 512 512" id="cheese">
      <path d="M368 336a48 48 0 0 1-48-48H0v160a32 32 0 0 0 32 32h448a32 32 0 0 0 32-32V288h-96a48 48 0 0 1-48 48zm-192 96a48 48 0 1 1 48-48 48 48 0 0 1-48 48zM299.83 32a32 32 0 0 0-21.13 7l-61.76 48.06a47.91 47.91 0 0 1-75.1 58.48L0 256h512c0-119.89-94-217.8-212.17-224z"/>
    </symbol>
    <symbol viewBox="0 0 576 512" id="salad">
      <path d="M98 28C92 34 87 40.6667 83 48C69 70 51.6667 89.3333 31 106C29 108 26.6667 110 24 112C11.3333 125.333 3.66667 140.667 1 158C-1.66667 174.667 1 191 9 207C15 219 18.6667 231.333 20 244L20 280C20 295.333 25.3333 308.333 36 319L62 346C72.6667 356.667 78 369.667 78 385L78 398C78 400.667 78.3333 403.333 79 406L87 399C93 392.333 96 384.667 96 376L96 331C96.6667 304.333 106 281.667 124 263L135 252C141 246 144 238.667 144 230L144 187C144.667 160.333 154 137.667 172 119L201 90C205.667 85.3333 210.333 76.3333 215 63C219.667 49.6667 226 37.6667 234 27C214 9 191.333 0 166 0C140.667 0 118 9.66667 98 29L98 28ZM568 230C564 199.333 565.667 169.333 573 140C575 131.333 576 122 576 112C575.333 80 564.333 53.6667 543 33C522.333 11.6667 496 0.666667 464 0C454 0 444.667 1.33333 436 4C406.667 10.6667 376.667 12.3333 346 9C342.667 8.33333 339.333 8 336 8C314.667 8.66667 296 14.6667 280 26C263.333 38 251.667 53.6667 245 73C241 87.6667 234 100.667 224 112L195 141C182.333 153.667 176 169 176 187L176 230C176 247.333 169.667 262.333 157 275L147 285C135 297.667 128.667 313 128 331L128 376C128 394 122 409.333 110 422L73 457C67 463.667 64 471.333 64 480C64 488.667 67 496.333 73 503C79.6667 509 87.3333 512 96 512C104.667 512 112.333 509 119 503L155 467C167.667 454.333 182.667 448 200 448L246 448C263.333 448 278.333 441.667 291 429L301 419C313.667 407 329 400.667 347 400L390 400C407.333 400 422.333 393.667 435 381L464 352C475.333 342 488.333 335 503 331C522.333 324.333 538 312.667 550 296C561.333 280 567.333 261.333 568 240L568 230L568 230ZM475 101C481.667 108.333 481.667 115.667 475 123L391 208L448 208C458 208.667 463.333 214 464 224C463.333 234 458 239.333 448 240L359 240L299 299L251 347C243.667 353.667 236.333 353.667 229 347C222.333 339.667 222.333 332.333 229 325L272 281L272 192C272.667 182 278 176.667 288 176C298 176.667 303.333 182 304 192L304 249L341 213L453 101C460.333 94.3333 467.667 94.3333 475 101L475 101Z"/>
    </symbol>
    <symbol viewBox="0 0 576 512" id="steak">
      <path d="M368.85 96c-27.31 0-51.89 23.7-62.62 60.36-6.24 21.36-26.75 106.21-173.16 170-138.8 60.35 163.93 169.45 321.26-9.82 38.21-43.53 32.8-126-11.57-176.59C417.86 111.58 391.61 96 368.85 96zM384 255.9a32 32 0 1 1 32-32 32 32 0 0 1-32 32zM514.92 76.65C467.92 23.11 416.28 0 368.85 0 298.27 0 237 51.17 214.1 129.38 165 269.31 1.37 212.32 0 351.63c-1.19 121.61 139.27 164.61 256 160 87.78-3.4 187.32-37.09 270.49-131.84C596.78 299.75 591.6 164 514.92 76.65zm-36.53 261c-76.15 86.75-164.32 107.76-224.82 110.1-37.65 1.38-131.52-6.52-171.24-46.62-2.49-2.51-59.44-61.76 38-104.17 71.64-31.19 132.3-71.24 155.23-149.6C290.34 96.7 327 64 368.85 64c32.58 0 66.45 19 98 54.88 55.15 62.84 60.45 163.03 11.54 218.76z"/>
    </symbol>
    <symbol viewBox="0 0 512 512" id="tomato">
      <path d="M241 7L224 24L239 9C239 9 239.667 8.33333 241 7L241 7L241 7L241 7L241 7L242 8L242 8L244 10C244 10 245.667 12 249 16C253.667 21.3333 259 29 265 39C271.667 50.3333 277.667 64.3333 283 81C329 84.3333 370.667 95.3333 408 114C414.667 118 417.333 124 416 132C414 139.333 408.667 143.333 400 144L366 144L381 167C385 173.667 384.667 180 380 186C374.667 191.333 368.667 193 362 191L256 145L150 191C143.333 193.667 137.333 192 132 186C127.333 180 127 173.667 131 167L146 144L115 144C107 145.333 101 142.333 97 135C93.6667 126.333 96 119.333 104 114L105 113C143 94.3333 185.333 83.6667 232 81C229.333 74.3333 226.333 68.3333 223 63C219 55.6667 215.333 50 212 46L210 44L208 42L208 41L207 41L207 41C197.667 29.6667 197.667 18.3333 207 7C218.333-2.33333 229.667-2.33333 241 7L241 7ZM71 154C77.6667 163.333 86 170 96 174C95.3333 186 99 197 107 207C123 223.667 141.667 228 163 220L256 180L349 220C370.333 228 389 223.667 405 207C413 197 416.667 186 416 174C426.667 170 435 163.333 441 154C486.333 190 510 240 512 304C510 370 485 421 437 457C389 493 328.667 511.333 256 512C183.333 511.333 123 493 75 457C27 421 2 370 0 304C2 240 25.6667 190 71 154L71 154Z"/>
    </symbol>
  </defs>
</svg>